<svg version="1.1" xmlns="http://www.w3.org/2000/svg" xmlns:xlink="http://www.w3.org/1999/xlink" width="700" height="700" viewBox="370,15.5,700,700"><defs><clipPath id="clip-1"><rect x="370" y="15.5" width="700" height="700" id="clip-1" fill="none" stroke="none" stroke-width="1" stroke-linecap="butt" stroke-linejoin="miter"/></clipPath></defs><g id="document" fill="#ffffff" fill-rule="nonzero" stroke="#000000" stroke-width="0" stroke-linecap="butt" stroke-linejoin="miter" stroke-miterlimit="10" stroke-dasharray="" stroke-dashoffset="0" font-family="none" font-weight="none" font-size="none" text-anchor="none" style="mix-blend-mode: normal"><rect x="370" y="11.07143" transform="scale(1,1.4)" width="700" height="500" id="Shape 1 1" vector-effect="non-scaling-stroke"/></g><g fill="none" fill-rule="nonzero" stroke="none" stroke-width="none" stroke-linecap="none" stroke-linejoin="none" stroke-miterlimit="10" stroke-dasharray="" stroke-dashoffset="0" font-family="none" font-weight="none" font-size="none" text-anchor="none" style="mix-blend-mode: normal"><g><g id="stage"><g id="layer1 1"><g clip-path="url(#clip-1)" id="Group 1"><g id="Group 1" fill="#eba10e" stroke="#000000" stroke-width="0" stroke-linecap="butt" stroke-linejoin="miter"><rect x="370" y="11.07143" transform="scale(1,1.4)" width="700" height="500" id="Shape 1"/></g><g id="Group 1" fill="#141314" stroke="#000000" stroke-width="1" stroke-linecap="round" stroke-linejoin="round"><g id="Group 1"><g id="Group 1"><path d="M435,452v-367h177v367z" id="Path 1"/><path d="M435,478h362v165h-362z" id="Path 1"/><path d="M648,85h357v162h-357z" id="Path 1"/><path d="M622,499" id="Path 1"/><path d="M435,173.5c0,-48.8772 39.6228,-88.5 88.5,-88.5c48.8772,0 88.5,39.6228 88.5,88.5c0,48.8772 -39.6228,88.5 -88.5,88.5c-48.8772,0 -88.5,-39.6228 -88.5,-88.5z" id="Path 1"/><path d="M435,452v-367h177v367z" id="Path 1"/><path d="M648,285h357v359h-177v-190h-180z" id="Path 1"/></g></g></g></g></g></g></g></g></svg>