<svg version="1.1" xmlns="http://www.w3.org/2000/svg" xmlns:xlink="http://www.w3.org/1999/xlink" width="700" height="700" viewBox="610,105.5,700,700"><g id="document" fill="#ffffff" fill-rule="nonzero" stroke="#000000" stroke-width="0" stroke-linecap="butt" stroke-linejoin="miter" stroke-miterlimit="10" stroke-dasharray="" stroke-dashoffset="0" font-family="none" font-weight="none" font-size="none" text-anchor="none" style="mix-blend-mode: normal"><rect x="610" y="75.35714" transform="scale(1,1.4)" width="700" height="500" id="Shape 1 1" vector-effect="non-scaling-stroke"></rect></g><g fill="none" fill-rule="nonzero" stroke="#000000" stroke-width="1" stroke-linecap="round" stroke-linejoin="round" stroke-miterlimit="10" stroke-dasharray="" stroke-dashoffset="0" font-family="none" font-weight="none" font-size="none" text-anchor="none" style="mix-blend-mode: normal"><g id="stage"><g id="layer1 1"><path d="M675,542v-367h177v367z" id="Path 1" fill="#000000" data-index="0"></path><path d="M888,375h357v169h-357z" id="Path 1" fill="#000000" data-index="1"></path><path d="M1245,375v359h-177v-359z" id="Path 1" fill="#000000" data-index="2" style="opacity: 1;"></path><path d="M675,568h362v165h-362z" id="Path 1" fill="#000000" data-index="3" style="opacity: 1;"></path><path d="M888,175h357v162h-357z" id="Path 1" fill="#000000" data-index="4"></path><path d="M862,589" id="Path 1" fill="none" data-index="5"></path><path d="M675,263.5c0,-48.8772 39.6228,-88.5 88.5,-88.5c48.8772,0 88.5,39.6228 88.5,88.5c0,48.8772 -39.6228,88.5 -88.5,88.5c-48.8772,0 -88.5,-39.6228 -88.5,-88.5z" id="Path 1" fill-opacity="0" fill="#000000" data-index="6"></path></g></g></g></svg>